<svg width="110" height="30" viewBox="0 0 110 30" fill="none" xmlns="http://www.w3.org/2000/svg">
<path d="M19.1676 3.41087V0L8.56423 3.59624C6.97002 4.18943 6.04315 5.70949 6.04315 7.6003V8.30472L18.6485 3.96699C18.9451 3.92991 19.1676 3.74454 19.1676 3.41087Z" fill="#E3803F"/>
<path d="M3.78161 15.3119C3.78161 14.0884 4.85678 13.0874 6.11731 13.0874H18.6856C20.873 13.1244 21.9853 11.3819 22.0223 9.34283H4.30066C1.96495 9.34283 0 11.1966 0 13.384V24.9142C0.0370746 26.9533 1.59421 29.0295 4.07821 29.0295H18.6485C20.6506 29.0295 21.9111 27.3982 21.9111 25.4703V25.2108H3.78161V15.3119Z" fill="white"/>
<path d="M6.74756 19.1305V20.9842H18.2407C19.9091 21.0584 21.355 19.4271 21.355 17.1285H8.60129C7.52613 17.1285 6.74756 17.9812 6.74756 19.1305Z" fill="white"/>
<path d="M34.9734 6.39453V23.3927C34.9734 24.7688 34.0021 25.902 32.4641 25.902H28.4979V28.816H33.1117C36.0256 28.816 38.8587 27.0352 38.8587 23.5546V6.39453H34.9734Z" fill="white"/>
<path d="M38.7778 0H34.9734V3.23776H38.7778V0Z" fill="#E3803F"/>
<path d="M51.3966 7.20404V24.2023C51.3966 25.5783 50.5062 26.7925 48.8873 26.7925H45.2449V29.5446H49.6158C52.5298 29.5446 55.201 27.9257 55.201 24.3642V7.20404H51.3966Z" fill="white"/>
<path d="M55.12 0.809448H51.3966V4.04721H55.12V0.809448Z" fill="#E3803F"/>
<path d="M79.2413 10.5227H62.9716V14.0842H78.5128C80.5364 14.0842 81.6696 14.8127 81.6696 17.1601V17.8077H67.0997C64.2667 17.8077 61.4337 19.8313 61.4337 23.4737C61.4337 27.1162 63.6191 29.6255 66.8569 29.6255H85.6359V16.4316C85.6359 13.1939 83.6932 10.5227 79.2413 10.5227ZM81.5887 25.9021H67.5854C66.4522 25.9021 65.4809 25.1736 65.4809 23.7975C65.4809 22.6643 66.3712 21.5311 67.7473 21.5311H81.5887V25.9021Z" fill="white"/>
<path d="M99.3963 10.5227C95.1872 10.5227 92.1923 12.7891 92.1923 17.0792V29.7064H96.4014L96.3205 17.4839C96.3205 14.9746 97.7775 14.0033 99.882 14.0033H106.519C108.543 14.0033 110 12.7082 110 10.5227H99.3963Z" fill="white"/>
</svg>
