<svg width="203" height="268" viewBox="0 0 203 268" fill="none" xmlns="http://www.w3.org/2000/svg">
<path d="M176.685 31.4411V0L78.9441 33.1498C64.2489 38.6178 55.7051 52.6296 55.7051 70.0589V76.5522L171.9 36.5673C174.634 36.2256 176.685 34.5168 176.685 31.4411Z" fill="#BB8D5A"/>
<path d="M34.8586 141.143C34.8586 129.865 44.7694 120.638 56.3889 120.638H172.242C192.406 120.98 202.658 104.918 203 86.1213H39.6431C18.1128 86.1213 0 103.209 0 123.372V229.657C0.341751 248.453 14.6953 267.591 37.5926 267.591H171.901C190.355 267.591 201.975 252.554 201.975 234.783V232.391H34.8586V141.143Z" fill="#192433"/>
<path d="M62.1982 176.343V193.431H168.141C183.52 194.114 196.848 179.077 196.848 157.889H79.2858C69.375 157.889 62.1982 165.749 62.1982 176.343Z" fill="#192433"/>
</svg>
